<svg xmlns="http://www.w3.org/2000/svg" width="38.205" height="53.486" viewBox="0 0 38.205 53.486">
  <g id="document-tasks" transform="translate(-6.75 -2.25)">
    <path id="Path_107" data-name="Path 107" d="M44.38,16.2,31.009,2.824a1.739,1.739,0,0,0-1.336-.574H10.57a3.82,3.82,0,0,0-3.82,3.82V51.916a3.82,3.82,0,0,0,3.82,3.82H41.134a3.82,3.82,0,0,0,3.82-3.82V17.532a1.739,1.739,0,0,0-.572-1.336ZM29.673,6.835l10.7,10.7h-10.7ZM41.134,51.916H10.57V6.071H25.852V17.532a3.82,3.82,0,0,0,3.82,3.82H41.134Z" fill="#373d94"/>
    <path id="Path_108" data-name="Path 108" d="M18.891,30.128,13.943,25.18,11.25,27.873l7.641,7.641L34.173,20.232,31.48,17.539Z" transform="translate(3.141 10.671)" fill="#373d94"/>
  </g>
</svg>
