<svg xmlns="http://www.w3.org/2000/svg" width="151.428" height="160.5" viewBox="0 0 151.428 160.5">
  <g id="Group_1439" data-name="Group 1439" transform="translate(-884.786 -2620)">
    <g id="Group_3" data-name="Group 3" transform="translate(639.786 172)">
      <g id="Group_1" data-name="Group 1" transform="translate(276.672 2488.25)">
        <path id="Path_1" data-name="Path 1" d="M-225.914,114.845c0,.671,0,1.152,0,1.634q0,4.3,0,8.6a2.454,2.454,0,0,1-2.7,2.707l-90.358,0a2.472,2.472,0,0,1-2.771-2.657c-.029-2.3.024-4.609.025-6.914,0-1.609-.037-3.218-.037-4.828q0-25.8,0-51.594,0-25.588-.006-51.177c0-1.189.233-2.258,1.423-2.8a3.371,3.371,0,0,1,1.361-.256q23.547-.019,47.093-.01c4.5,0,9,.016,13.493-.011a3.215,3.215,0,0,1,2.176.889Q-241.554,20.88-226.9,33.34a2.729,2.729,0,0,1,.966,2.195c.007,7.477.007,14.955.037,22.432a1.18,1.18,0,0,0,.455.793A26.874,26.874,0,0,1-214.9,75.23a26.29,26.29,0,0,1,.121,9.866,26.628,26.628,0,0,1-2.8,8.148.848.848,0,0,0,.118,1.111q5.123,6.262,10.214,12.549c1.128,1.389,2.308,2.742,3.362,4.186a9.84,9.84,0,0,1-.847,12.585,9.616,9.616,0,0,1-12.692.961,25.407,25.407,0,0,1-3.627-3.923c-1.45-1.7-2.831-3.467-4.245-5.2C-225.441,115.329-225.613,115.166-225.914,114.845Zm-40.572-43.79h-.892q-16.09,0-32.18,0a7.43,7.43,0,0,1-1.2-.076,2.45,2.45,0,0,1-2.011-2.8A2.461,2.461,0,0,1-300.086,66q17.668,0,35.337.012a1.38,1.38,0,0,0,1.3-.679A26.248,26.248,0,0,1-245.639,53.95a26.429,26.429,0,0,1,13.932,1.423c.219.083.444.152.745.255v-.835q0-8,0-15.989c0-.916,0-.917-.9-.917q-13.033,0-26.067,0a2.5,2.5,0,0,1-2.768-2.792q0-10.884.012-21.767c0-.585-.111-.806-.765-.805q-27.242.029-54.484.015h-.756V122.8h84.878c.9,0,.9,0,.9-.921,0-3.628-.063-7.257.029-10.883a5.083,5.083,0,0,0-1.432-4.169,1.366,1.366,0,0,0-1.564-.507,24.838,24.838,0,0,1-12.484.513c-10.847-2.4-17.743-9.066-20.868-19.676-.188-.638-.416-.829-1.067-.827-7.117.024-14.234.015-21.351.015-3.494,0-6.987.008-10.481,0a2.512,2.512,0,0,1-2.545-3.349,2.53,2.53,0,0,1,2.683-1.694q15.519,0,31.038,0c.863,0,.805,0,.876-.878.151-1.87.293-3.746.584-5.6A36.336,36.336,0,0,1-266.486,71.055Zm25.381,31.3a21.739,21.739,0,0,0,21.7-22.128A21.952,21.952,0,0,0-241.4,58.631a21.817,21.817,0,0,0-21.7,21.9A22.019,22.019,0,0,0-241.1,102.35Zm13.052,1.715c.048.066.1.139.15.205q3.89,4.8,7.781,9.59c1.637,2.013,3.259,4.039,4.93,6.023a4.359,4.359,0,0,0,4.463,1.539,4.66,4.66,0,0,0,2.516-7.7q-4.816-5.9-9.608-11.826c-1.011-1.244-2.032-2.481-3.029-3.7-1.163,1.078-2.227,2.167-3.4,3.121C-225.441,102.294-226.742,103.13-228.053,104.065Zm-27.6-71.313H-235.4l-20.252-17.215Z" transform="translate(321.76 -7.535)" fill="#576975"/>
        <path id="Path_2" data-name="Path 2" d="M-257.207,106.254q9.3,0,18.6,0a2.433,2.433,0,0,1,2.437,1.915,2.422,2.422,0,0,1-1.2,2.742,4.135,4.135,0,0,1-1.743.363c-6.514.026-13.029.019-19.543.02q-8.428,0-16.857,0a2.549,2.549,0,0,1-2.8-1.991,2.462,2.462,0,0,1,2.56-3.049q8.294-.009,16.589,0Z" transform="translate(298.016 -63.108)" fill="#4a90e2"/>
        <path id="Path_3" data-name="Path 3" d="M-169.845,141.879A2.576,2.576,0,0,1-171,144.04a13.533,13.533,0,0,0-4.444,7.109c-.178.69-.272,1.4-.387,2.109a2.486,2.486,0,0,1-2.744,2.187,2.471,2.471,0,0,1-2.236-2.821,18.637,18.637,0,0,1,6.746-12.631,2.484,2.484,0,0,1,2.817-.422A2.3,2.3,0,0,1-169.845,141.879Z" transform="translate(243.108 -81.719)" fill="#4a90e2"/>
      </g>
      <g id="Ellipse_1" data-name="Ellipse 1" transform="translate(245 2495)" fill="none" stroke="#d3e5fb" stroke-width="6">
        <circle cx="7.5" cy="7.5" r="7.5" stroke="none"/>
        <circle cx="7.5" cy="7.5" r="4.5" fill="none"/>
      </g>
      <g id="Ellipse_2" data-name="Ellipse 2" transform="translate(288 2454)" fill="none" stroke="#d3e5fb" stroke-width="6">
        <circle cx="9.5" cy="9.5" r="9.5" stroke="none"/>
        <circle cx="9.5" cy="9.5" r="6.5" fill="none"/>
      </g>
      <text id="_" data-name="+" transform="translate(265 2481)" fill="#d3e5fb" font-size="31" font-family="SegoeUI-Bold, Segoe UI" font-weight="700"><tspan x="-10.959" y="0">+</tspan></text>
    </g>
  </g>
</svg>
