<svg xmlns="http://www.w3.org/2000/svg" width="42.467" height="42.467" viewBox="0 0 42.467 42.467">
  <g id="thumbnails" transform="translate(-6.319 -6.319)">
    <path id="Path_98" data-name="Path 98" d="M14.646,6.319H7.8A1.485,1.485,0,0,0,6.319,7.8v6.84A1.485,1.485,0,0,0,7.8,16.13h6.842a1.485,1.485,0,0,0,1.485-1.485V7.8a1.485,1.485,0,0,0-1.483-1.485Z" transform="translate(0 0)" fill="#373d94"/>
    <path id="Path_99" data-name="Path 99" d="M23.628,6.319H16.786A1.485,1.485,0,0,0,15.3,7.8v6.84a1.485,1.485,0,0,0,1.485,1.485h6.842a1.485,1.485,0,0,0,1.485-1.485V7.8a1.485,1.485,0,0,0-1.485-1.485Z" transform="translate(7.345 0)" fill="#373d94"/>
    <path id="Path_100" data-name="Path 100" d="M34.1,7.8A1.485,1.485,0,0,0,32.61,6.319H25.768A1.485,1.485,0,0,0,24.283,7.8v6.842a1.485,1.485,0,0,0,1.485,1.485H32.61A1.485,1.485,0,0,0,34.1,14.646V7.8Z" transform="translate(14.691 0)" fill="#373d94"/>
    <path id="Path_101" data-name="Path 101" d="M14.646,15.3H7.8a1.485,1.485,0,0,0-1.485,1.485v6.842A1.485,1.485,0,0,0,7.8,25.114h6.842a1.485,1.485,0,0,0,1.485-1.485V16.787A1.485,1.485,0,0,0,14.648,15.3Z" transform="translate(0 7.346)" fill="#373d94"/>
    <path id="Path_102" data-name="Path 102" d="M23.628,15.3H16.786A1.485,1.485,0,0,0,15.3,16.787v6.842a1.485,1.485,0,0,0,1.485,1.485h6.842a1.485,1.485,0,0,0,1.485-1.485V16.787A1.485,1.485,0,0,0,23.628,15.3Z" transform="translate(7.345 7.346)" fill="#373d94"/>
    <path id="Path_103" data-name="Path 103" d="M32.61,15.3H25.768a1.485,1.485,0,0,0-1.485,1.485v6.842a1.485,1.485,0,0,0,1.485,1.485H32.61A1.485,1.485,0,0,0,34.1,23.629V16.787A1.485,1.485,0,0,0,32.612,15.3Z" transform="translate(14.691 7.346)" fill="#373d94"/>
    <path id="Path_104" data-name="Path 104" d="M14.646,24.283H7.8a1.485,1.485,0,0,0-1.485,1.485v6.84A1.485,1.485,0,0,0,7.8,34.094h6.842a1.485,1.485,0,0,0,1.485-1.485v-6.84a1.483,1.483,0,0,0-1.483-1.485Z" transform="translate(0 14.691)" fill="#373d94"/>
    <path id="Path_105" data-name="Path 105" d="M23.628,24.283H16.786A1.485,1.485,0,0,0,15.3,25.768v6.84a1.485,1.485,0,0,0,1.485,1.485h6.842a1.485,1.485,0,0,0,1.485-1.485v-6.84a1.485,1.485,0,0,0-1.485-1.485Z" transform="translate(7.345 14.691)" fill="#373d94"/>
    <path id="Path_106" data-name="Path 106" d="M32.61,24.283H25.768a1.485,1.485,0,0,0-1.485,1.485V32.61A1.485,1.485,0,0,0,25.768,34.1H32.61A1.485,1.485,0,0,0,34.1,32.61V25.768a1.483,1.483,0,0,0-1.483-1.485Z" transform="translate(14.691 14.691)" fill="#373d94"/>
  </g>
</svg>
