<svg xmlns="http://www.w3.org/2000/svg" width="51.461" height="55.731" viewBox="0 0 51.461 55.731">
  <g id="user" transform="translate(-7.434 -6.57)">
    <path id="Path_93" data-name="Path 93" d="M20.725,19.046c0,3.724,2.111,8.466,4.58,10.32.664.5.067.351.877.859-6.268,1.9-14.425,5.134-18.118,12.058V61.671h50.2V42.283c-3.693-6.924-11.851-10.156-18.118-12.061C44.578,27.452,45.6,23.6,45.6,19.043,45.588,12.739,40.539,7.2,33.163,7.2S20.74,12.739,20.725,19.046Z" transform="translate(0 0)" fill="none" stroke="#373d94" stroke-linecap="round" stroke-miterlimit="2.3" stroke-width="1.26"/>
    <path id="Path_94" data-name="Path 94" d="M13.536,14.124c1.785.162,1.844-1.18,6.732-.892,7.3.431,4.942,2.636,9.922,2.783,3.883-.146,3.716-1.38,5.5-1.89A22.756,22.756,0,0,0,24.615,7.2a24.659,24.659,0,0,0-11.079,6.924Z" transform="translate(8.561 0)" fill="#373d94" stroke="#373d94" stroke-width="1" fill-rule="evenodd"/>
    <path id="Path_95" data-name="Path 95" d="M12.312,35.965V23.04" transform="translate(6.646 24.782)" fill="none" stroke="#373d94" stroke-width="1.26"/>
    <path id="Path_96" data-name="Path 96" d="M23.364,35.965V23.04" transform="translate(23.937 24.782)" fill="none" stroke="#373d94" stroke-width="1.26"/>
    <path id="Path_97" data-name="Path 97" d="M14.3,16.56s-1.741,5.645,0,7.386c4.875,4.875,15.805,4.875,20.68,0,1.741-1.741,0-7.386,0-7.386" transform="translate(8.54 14.644)" fill="none" stroke="#373d94" stroke-width="1.26"/>
  </g>
</svg>
